<?xml version="1.0" encoding="utf-8"?>
<svg xmlns="http://www.w3.org/2000/svg" viewBox="0 0 500 500" xmlns:bx="https://boxy-svg.com" width="500px" height="500px"><defs><bx:export><bx:file format="svg" path="Sans titre.svg"/></bx:export></defs><path fill-rule="evenodd" clip-rule="evenodd" d="M 249.011 498.655 C 386.566 498.655 498.07 387.076 498.07 249.428 C 498.07 111.781 386.566 0.204 249.011 0.204 C 111.454 0.204 -0.049 111.781 -0.049 249.428 C -0.049 387.076 111.454 498.655 249.011 498.655 Z M 326.704 116.305 C 330.489 102.86 317.452 94.909 305.547 103.395 L 139.337 221.889 C 126.422 231.087 128.453 249.428 142.388 249.428 L 186.16 249.428 L 186.16 249.093 L 271.464 249.093 L 201.95 273.628 L 171.316 382.554 C 167.53 395.998 180.568 403.95 192.474 395.464 L 358.684 276.969 C 371.597 267.772 369.567 249.428 355.632 249.428 L 289.257 249.428 L 326.704 116.305 Z" class="ccustom" fill="#2563eb" style=""/></svg>